<?xml version="1.0" encoding="utf-8"?>
<!-- Generator: Adobe Illustrator 24.1.2, SVG Export Plug-In . SVG Version: 6.00 Build 0)  -->
<svg version="1.1" id="Layer_1" xmlns="http://www.w3.org/2000/svg" xmlns:xlink="http://www.w3.org/1999/xlink" x="0px" y="0px"
	 viewBox="0 0 130 130" style="enable-background:new 0 0 130 130;" xml:space="preserve">
<path d="M121.8,102.8h-4.2c0,0-0.1,0-0.1,0L71.2,35.3l6.7-9.8c1.2-1.8,0.8-4.3-1-5.6c-1.8-1.2-4.3-0.8-5.6,1l-5,7.2l-4.9-7.1
	c-1.2-1.8-3.7-2.3-5.6-1c-1.8,1.2-2.3,3.7-1,5.6l6.6,9.7l-46.2,67.5H8.2c-2.2,0-4,1.8-4,4s1.8,4,4,4h67.1h46.4c2.2,0,4-1.8,4-4
	S124,102.8,121.8,102.8z M64.9,69.4L84,101.9l-37.7,0.3L64.9,69.4z"/>
</svg>
