<?xml version="1.0" encoding="utf-8"?>
<!-- Generator: Adobe Illustrator 24.1.2, SVG Export Plug-In . SVG Version: 6.00 Build 0)  -->
<svg version="1.1" id="Layer_1" xmlns="http://www.w3.org/2000/svg" xmlns:xlink="http://www.w3.org/1999/xlink" x="0px" y="0px"
	 viewBox="0 0 130 130" style="enable-background:new 0 0 130 130;" xml:space="preserve">
<path d="M69.1,77.1c11.9,13.1,14.1,22.3,8.2,33c-4.5,8.3-14.4,13.3-23.5,12c-11.6-1.7-18.4-9-21.1-22.9c-2.1-0.4-4.5-0.6-6.7-1.2
	c-9.8-3-15.7-9.8-17.3-19.9c-1.6-9.6,2.1-17.4,9.8-23.1c7.7-5.7,16.2-6.4,24.9-1.9c10.2,5.3,10.2,5.3,18.6-3
	c12.1-12.1,24.1-24.4,36.4-36.3c2.6-2.5,6.2-4.5,9.7-5.6c8.2-2.4,15.5,4.8,12.6,12.8c-1.8,5.1-5.3,10-9.2,13.9
	C97.7,49.2,83.3,63.1,69.1,77.1z M32.1,87.3c6.7,0,12.7-5.9,12.9-12.7c0.2-6.9-5.7-12.7-12.7-12.7c-7.1,0.1-12.9,5.8-12.9,12.6
	C19.5,81.4,25.3,87.2,32.1,87.3z M57,86.2c-6.5,0.1-12.4,6.1-12.3,12.6c0,6.5,6.1,12.5,12.5,12.3c6.5-0.1,12.2-6.1,12.3-12.6
	C69.4,91.9,63.6,86.1,57,86.2z"/>
</svg>
