<?xml version="1.0" encoding="utf-8"?>
<svg version="1.1" id="Layer_1" xmlns="http://www.w3.org/2000/svg" x="0px" y="0px"
	viewBox="0 0 130 130" style="enable-background:new 0 0 130 130;" xml:space="preserve">
<g>
	<path fill="#36369F" d="M65,79.4c12.1,0,21.9,10.8,21.9,24h11.4c0-20.1-14.9-36.5-33.3-36.5c-18.4,0-33.3,16.3-33.3,36.5h11.4
		C43.1,90.1,52.9,79.4,65,79.4z"/>
	<path fill="#50EF73" d="M65,66.9c18.4,0,33.3,16.3,33.3,36.5h10.1c0-26.2-19.4-47.5-43.3-47.5s-43.3,21.3-43.3,47.5h10.1
		C31.7,83.3,46.6,66.9,65,66.9z"/>
	<path fill="#EC2027" d="M65,43.8c30,0,54.4,26.7,54.4,59.6H130c0-39.4-29.1-71.3-65-71.3C29.1,32.1,0,64,0,103.4h10.6
		C10.6,70.5,35,43.8,65,43.8z"/>
	<path fill="#9F8906" d="M65,55.9c23.9,0,43.3,21.3,43.3,47.5h11.1c0-32.9-24.4-59.6-54.4-59.6c-30,0-54.4,26.7-54.4,59.6h11.1
		C21.7,77.2,41.1,55.9,65,55.9z"/>
</g>
</svg>