<?xml version="1.0" encoding="utf-8"?>
<!-- Generator: Adobe Illustrator 24.1.2, SVG Export Plug-In . SVG Version: 6.00 Build 0)  -->
<svg version="1.1" id="Layer_1" xmlns="http://www.w3.org/2000/svg" xmlns:xlink="http://www.w3.org/1999/xlink" x="0px" y="0px"
	 viewBox="0 0 130 130" style="enable-background:new 0 0 130 130;" xml:space="preserve">
<path d="M121.2,65.2c0,8.8-0.1,17.7,0.1,26.5c0.1,4.1-1.4,6.5-5.2,8.1c-15.6,6.5-31.2,13.2-46.9,19.5c-2.5,1-6,0.9-8.5-0.1
	c-15.4-6.3-30.5-13.1-45.8-19.5c-4.3-1.8-6-4.6-6-9.2c0.1-17,0.2-34-0.1-51c-0.1-5.6,1.9-8.7,7.3-10.8c14.6-5.6,29-11.6,43.4-17.6
	c3.5-1.5,6.6-1.4,10,0.1c15,6.3,30.1,12.4,45.2,18.5c4.8,1.9,7,4.7,6.7,10.1C120.8,48.2,121.2,56.7,121.2,65.2z M111.2,42.8
	c-9.6,4.1-18.6,7.8-27.5,11.7c-4.6,2-10.9,2.9-13.1,6.4c-2.4,3.7-1,9.9-1,15c-0.1,10.6,0,21.1,0,32.2c13.6-5.7,26.6-11.1,39.5-16.6
	c0.9-0.4,2.1-1.8,2.1-2.7C111.2,73.7,111.2,58.7,111.2,42.8z M59.7,108c0-16.1,0-31.2-0.1-46.3c0-0.9-0.9-2.1-1.8-2.5
	c-3.7-1.8-7.5-3.3-11.7-5c0,2.9-0.1,5.2,0,7.5c0.2,4.2-1.4,6.7-6,6.8c-4.4,0-6.8-2.1-6.9-6.6c-0.1-3.5,0.1-7-0.2-10.5
	c-0.1-1.4-0.9-3.3-2-3.9c-3.8-1.9-7.8-3.4-12.2-5.2c0,15.8,0,30.9,0.1,46c0,1.1,1.2,2.7,2.2,3.2C33.6,96.9,46.1,102.2,59.7,108z
	 M102.3,35.7c-7.8-4.6-15.1-7.4-22.9-1.4c-1.8,1.4-4.2,1.9-6.3,2.9c-6.3,2.9-12.6,5.9-19.6,9.2c2.9,1.2,4.6,2.2,6.6,2.7
	c2.6,0.6,5.7,1.9,7.9,1C79.3,45.6,90.5,40.7,102.3,35.7z M74.1,24.3c-6-3.8-11.4-4.3-17.7-1.3c-9.1,4.4-18.7,7.8-29,12
	c3.6,1.5,6.2,2.7,8.8,3.6c1.6,0.6,3.7,1.5,5,0.9C52.2,34.6,63,29.5,74.1,24.3z"/>
</svg>
