<?xml version="1.0" encoding="utf-8"?>
<!-- Generator: Adobe Illustrator 24.1.2, SVG Export Plug-In . SVG Version: 6.00 Build 0)  -->
<svg version="1.1" id="Layer_1" xmlns="http://www.w3.org/2000/svg" xmlns:xlink="http://www.w3.org/1999/xlink" x="0px" y="0px"
	 viewBox="0 0 130 130" style="enable-background:new 0 0 130 130;" xml:space="preserve">
<path d="M44.3,40.7c0,1.8-0.3,3.6,0.1,5.2c0.3,1.3,1.1,3.1,2.1,3.4c1,0.3,3.2-0.5,3.7-1.4c2.9-5.5,6.2-11.1,7.9-17
	c1.9-6.5,2.3-13.4,3.2-20.1c0.6-4.8,1.9-5.7,6-2.9C82,18.1,91,31.8,92.3,50c0.2,2.4-0.6,5.8,2.9,5.7c1.5-0.1,3.2-3,4.3-5
	c0.8-1.5,0.9-3.4,1.6-6.3c8.1,8.5,13.2,17.5,14,28.3c1.3,18.6-8.4,31-24.7,40.8c7.9,0,14.6,0,21.3,0c1.7,0,3.7-0.5,4.9,0.3
	c1.8,1.1,4.2,3.3,4,4.7c-0.3,1.8-2.7,3.4-4.4,4.9c-0.5,0.4-1.6,0.1-2.4,0.1c-32.5,0-65,0-97.4,0c-3.7,0-6.9-0.5-6.9-5.1
	c0.1-4.7,3.6-4.9,7.1-4.9c10.5,0,21,0,32.5,0c-15.7-11.1-25.9-24.5-23.1-44.1c1.7-11.9,8.4-21.2,16.7-29.4
	C43.1,40.3,43.7,40.5,44.3,40.7z M70.4,58.1c-2.5,3.2-4.9,5.6-6.6,8.5C59.6,73.8,55,80.7,52,88.3c-2.8,7.3,1.3,16.1,7.7,20.5
	c6,4.2,12.9,4.3,19.1,0.3c8.3-5.3,11.1-16.4,5.9-26.6C80.7,74.6,75.7,67.2,70.4,58.1z"/>
</svg>
