<?xml version="1.0" encoding="utf-8"?>
<!-- Generator: Adobe Illustrator 24.1.2, SVG Export Plug-In . SVG Version: 6.00 Build 0)  -->
<svg version="1.1" id="Layer_1" xmlns="http://www.w3.org/2000/svg" xmlns:xlink="http://www.w3.org/1999/xlink" x="0px" y="0px"
	 viewBox="0 0 130 130" style="enable-background:new 0 0 130 130;" xml:space="preserve">
<path d="M52.2,68.8c-1.9-2-4-3.8-5.5-6c-0.8-1.2-1.2-3.2-0.8-4.5c0.3-0.9,2.4-1.5,3.7-1.6c4.8-0.3,6.6-2.3,6.7-6.9
	c0-1.9,0.8-4.3,2.1-5.7c10.7-11,21.5-21.8,32.4-32.6c5.4-5.3,11.2-5.6,16.9-0.7c3.7,3.1,7.1,6.5,10.5,10c5.2,5.3,5.7,10.5,1.2,16.5
	c-2.5,3.3-5.5,6.2-8.4,9.2c-8.3,8.6-16.7,17.2-25,25.8c-2.5,2.6-5,4-8.8,2.5c-3.2-1.3-4.3,0.9-4.6,3.8c-0.2,2.2-0.6,4.4-1,6.6
	c-2-1.1-4.2-2-6.1-3.4c-1-0.7-1.5-2.1-1.8-1.3c-10,9.3-19.9,18.6-30,27.7c-5,4.5-10.1,9-15.5,13c-3.6,2.7-6.5,0.1-9-2.5
	c-2.6-2.6-1.5-4.9,0.2-7.5c4.4-7,10.5-12.1,16.8-17.4C35.3,86.4,43.4,77.4,52.2,68.8z"/>
</svg>
