<?xml version="1.0" encoding="utf-8"?>
<!-- Generator: Adobe Illustrator 24.1.2, SVG Export Plug-In . SVG Version: 6.00 Build 0)  -->
<svg version="1.1" id="Layer_1" xmlns="http://www.w3.org/2000/svg" xmlns:xlink="http://www.w3.org/1999/xlink" x="0px" y="0px"
	 viewBox="0 0 130 130" style="enable-background:new 0 0 130 130;" xml:space="preserve">
<path d="M47.6,84.4C60,69.1,72.1,54.2,84.1,39.2C90,32,95.7,24.6,101.5,17.3c6.2-7.7,13.9-9.3,20.4-4.4c7,5.3,7.8,13.9,1.5,21.7
	C102.3,61.1,81,87.5,59.7,113.9c-6,7.5-14.2,8-20.8,1.2C27.6,103.5,16.7,91.7,5.9,79.7c-5.4-6-4.5-13.8,1.5-19.2
	c5.5-5,13.3-4.9,18.7,0.7C33.3,68.6,40.2,76.4,47.6,84.4z"/>
</svg>
