<?xml version="1.0" encoding="utf-8"?>
<!-- Generator: Adobe Illustrator 24.1.2, SVG Export Plug-In . SVG Version: 6.00 Build 0)  -->
<svg version="1.1" id="Layer_1" xmlns="http://www.w3.org/2000/svg" xmlns:xlink="http://www.w3.org/1999/xlink" x="0px" y="0px"
	 viewBox="0 0 130 130" style="enable-background:new 0 0 130 130;" xml:space="preserve">
<path d="M85.3,106.6c-4.8-5.1-9.4-10.3-14.3-15.2c-1.1-1.1-3.2-1.5-4.9-1.6c-18.8-1-35-16.6-36.2-35.1c-1.4-21.1,11.6-38.8,30.9-42
	c20.4-3.4,39,8.1,44.4,27.5c4.9,17.7-2.8,35.7-19,44.6c-1.3,0.7-2.6,1.4-4.5,2.3c5.9,6.4,11.6,12.6,17.5,18.6c1.1,1.1,3.3,1.4,5,1.4
	c5.3,0.1,10.7,0,16-0.1c3.8-0.1,6.3,1.8,6.3,5.5c0,3.8-2.7,5.3-6.4,5.3c-17.2,0-34.3,0.3-51.5-0.2c-4.4-0.1-8.9-2.5-12.9-4.6
	c-5.1-2.8-9.7-6.5-14.6-9.6c-7-4.4-13-3.7-18.9,2.1c-3,2.9-5.7,6.1-8.5,9.1c-2.4,2.6-5.4,4-8.3,1.3c-3-2.8-2-5.9,0.7-8.7
	c3.5-3.5,6.8-7.4,10.5-10.7c8.8-7.9,19.9-8.6,29.9-2.1c1.7,1.1,3.4,2.1,5,3.3C61.1,105.7,72,109.6,85.3,106.6z M96,50.3
	C96,35,83.3,22.7,67.7,22.8c-15.1,0.1-27.3,12.4-27.5,27.8c-0.2,15.3,12.5,28.3,27.7,28.3C83.2,78.9,96,65.9,96,50.3z"/>
</svg>
