<?xml version="1.0" encoding="utf-8"?>
<!-- Generator: Adobe Illustrator 24.1.2, SVG Export Plug-In . SVG Version: 6.00 Build 0)  -->
<svg version="1.1" id="Layer_1" xmlns="http://www.w3.org/2000/svg" xmlns:xlink="http://www.w3.org/1999/xlink" x="0px" y="0px"
	 viewBox="0 0 130 130" style="enable-background:new 0 0 130 130;" xml:space="preserve">
<path d="M63.9,59.5c4.2-3.7,8.3-6.9,11.8-10.6c1.2-1.3,1.4-4.2,1-6.2c-4-17.5,7.6-32.7,24.9-32.1c1.5,0.1,3.1,0.8,4.6,1.3
	c-0.8,1.5-1.3,3.3-2.4,4.5c-2.8,3.1-5.9,5.9-8.8,8.8c-4.2,4.3-4,9.4,0.5,14.1c5.2,5.3,10,5.8,14.7,1.3c3.5-3.4,6.7-7,10.2-10.3
	c0.9-0.9,2.6-1,3.9-1.5c0.4,1.2,1.1,2.4,1.2,3.6c1,17.5-14.1,29.7-31.9,26c-1.8-0.4-4.4,0.4-5.9,1.5c-3.8,3-7.1,6.5-10.9,10
	c10.1,9.3,20,18.4,29.9,27.5c1.6,1.5,3.2,2.9,4.7,4.5c4.1,4.5,4.3,10.5,0.5,14.4c-4.1,4.2-11,4.5-15.3,0.4
	c-4.9-4.7-9.4-9.9-14.3-14.7c-5.9-5.9-11.9-11.6-18.3-17.7c-8.4,9.2-17,18.6-25.7,28c-0.9,1-1.7,2-2.7,2.9
	c-5.7,5.3-12.3,5.4-17.3,0.3c-4.9-5.1-4.8-12.2,0.6-17.3c6.1-5.9,12.7-11.3,19-17c4.3-3.8,8.7-7.7,13.5-11.9
	c-4.3-4.1-8.3-8.1-12.5-11.8c-1-0.9-3.1-0.9-4.6-0.6c-7.1,1.6-13.2-0.1-18.1-5.4c-3.3-3.5-6.9-6.9-9.7-10.7c-1.4-1.9-2.2-5-1.9-7.3
	C4.9,31.5,7,29.2,8.9,28c0.9-0.5,3.5,1.1,4.9,2.3c2.5,2.2,4.7,4.8,7,7.1c3.2,3.2,6.4,2.3,9.2-0.4c2.9-2.8,3.7-5.9,0.5-9.1
	c-2.1-2.1-4.4-4.1-6.4-6.4c-3.9-4.3-2-9.8,3.6-10.9c1.8-0.3,3.7-0.4,5.5,0C41.1,12.6,54.5,29,52,36.5C47.7,49.3,58.6,52.3,63.9,59.5
	z M36.1,102.7c-2.8-1.2-4.5-2.4-5-2c-2.5,1.8-4.7,4.1-7,6.2c1.1,1,2.9,3.1,3.2,2.9C29.9,108,32.4,105.7,36.1,102.7z"/>
</svg>
