<?xml version="1.0" encoding="utf-8"?>
<!-- Generator: Adobe Illustrator 24.1.2, SVG Export Plug-In . SVG Version: 6.00 Build 0)  -->
<svg version="1.1" id="Layer_1" xmlns="http://www.w3.org/2000/svg" xmlns:xlink="http://www.w3.org/1999/xlink" x="0px" y="0px"
	 viewBox="0 0 130 130" style="enable-background:new 0 0 130 130;" xml:space="preserve">
<path d="M106.5,33H75.9L60.4,6.2H23.5L5,38.1L20.6,65L5,91.9l18.5,32h36.9L75.9,97h30.6L125,65L106.5,33z M16.9,38.1l12.5-21.7h25.1
	l12.3,21.4L54.1,59.9H29.4L16.9,38.1z M66.8,92.2l-12.3,21.4H29.4L16.9,91.9l12.5-21.7h24.7h0.4l12.5,21.7L66.8,92.2z M100.6,86.7
	H75.9L63.4,65l-0.2-0.4l12.3-21.4h0.4h24.7L113.1,65L100.6,86.7z"/>
</svg>
