<?xml version="1.0" encoding="utf-8"?>
<!-- Generator: Adobe Illustrator 24.1.2, SVG Export Plug-In . SVG Version: 6.00 Build 0)  -->
<svg version="1.1" id="Layer_1" xmlns="http://www.w3.org/2000/svg" xmlns:xlink="http://www.w3.org/1999/xlink" x="0px" y="0px"
	 viewBox="0 0 130 130" style="enable-background:new 0 0 130 130;" xml:space="preserve">
<style type="text/css">
	.st0{fill:#ED1C24;}
	.st1{fill:#FFFFFF;}
</style>
<rect class="st0" width="130" height="130"/>
<g>
	<path class="st1" d="M47.1,65.9l2.6,0.2l0,4l-2.6-0.5V65.9z M50.8,66.3l0,4.2l20.4,4.3l0.1-6.7L50.8,66.3z M72.8,68.2l0,6.9
		l3.4,0.7v-7.3L72.8,68.2z M47.1,80.8l2.4,1.1l0-4.5l-2.5-0.8L47.1,80.8L47.1,80.8z M50.9,77.8l0,4.7l20.2,9.3l0.1-7.2L50.9,77.8z
		 M72.9,85.1l0,7.4l3.3,1.5v-7.8L72.9,85.1z M47.1,75.2l2.5,0.8l0.1-4.3l-2.5-0.5L47.1,75.2L47.1,75.2z M50.8,72l0,4.4l20.3,6.8
		l0.1-6.9L50.8,72z M72.8,76.7l0,7.1l3.3,1.1v-7.6L72.8,76.7z M47.1,94.6l2.3,1.6l0-2.1l-2.3-1.6V94.6z M50.9,95.1l0,2.2l0.2,0.1
		l19.7,14.1l0-2.3L50.9,95.1z M73,110.8l0,2.3l3.2,2.3v-2.3L73,110.8z M47.1,86.3l2.4,1.4l0.1-4.8l-2.4-1.1V86.3z M50.9,83.5l0,5v0
		L71,100.2l0.1-7.4L50.9,83.5z M72.9,93.6l0,7.7l3.3,1.9v-8.1L72.9,93.6z M47.1,91.9l2.3,1.6l0.1-5l-2.4-1.4L47.1,91.9L47.1,91.9z
		 M50.9,89.3l0,5.3l20,14.1L71,101v0L50.9,89.3z M73,102.2l0,8.1l3.2,2.3v-8.4L73,102.2z M47.1,64.1l2.6,0.2l0-3.8l-2.6,0.1V64.1z
		 M50.8,60.6l0,3.9l20.6,1.8l0.1-6.4L50.8,60.6z M72.8,59.9l0,6.5l3.4,0.3v-7L72.8,59.9z M47.1,36.5L50,35l0-1.8L47.1,35L47.1,36.5
		L47.1,36.5z M50.6,32.8l0,1.9l21.2-10.8l0-4.4L50.6,32.8z M72.6,19l0,4.4l3.6-1.9v-4.9L72.6,19z M47.1,28.8v2.1l3-1.9l0-2.1
		L47.1,28.8L47.1,28.8L47.1,28.8z M50.6,26.6l0,2.1l21.3-13.3l0-1.8L50.6,26.6z M72.6,13.1l0,1.8l3.6-2.3v-1.8L72.6,13.1z M47.1,42
		l2.9-1.1l0-2.3l-2.9,1.5L47.1,42L47.1,42z M50.7,38.3l0,2.4l21-8.2l0.1-4.9L50.7,38.3z M72.6,27.1l0,5l3.6-1.4v-5.4L72.6,27.1z
		 M47.1,53.1l2.7-0.4l0-3.1l-2.8,0.8L47.1,53.1L47.1,53.1z M50.7,49.3l0,3.2l20.8-3.2l0.1-5.7L50.7,49.3z M72.7,43.3l0,5.8l3.5-0.5
		v-6.3L72.7,43.3z M47.1,58.6l2.7-0.1l0-3.5l-2.7,0.4L47.1,58.6L47.1,58.6z M50.7,54.9L50.7,54.9l0,3.6l20.7-0.7l0.1-6.1L50.7,54.9z
		 M72.7,51.6l0,6.2l3.5-0.1V51L72.7,51.6z M47.1,47.6l2.8-0.8l0-2.7l-2.8,1.1V47.6z M50.7,43.8l0,2.8l20.9-5.7l0.1-5.3L50.7,43.8z
		 M72.7,35.2l0,5.4l3.5-1v-5.9L72.7,35.2z"/>
</g>
</svg>
